Coordinates
version=1
nRows=13
nColumns=36
inDegrees=yes

Units are S.I. units (second, meters, Newtons, ...)
If the header above contains a line with 'inDegrees', this indicates whether rotational values are in degrees (yes) or radians (no).

endheader
time	pelvis_tilt	pelvis_list	pelvis_rotation	pelvis_tx	pelvis_ty	pelvis_tz	hip_flexion_r	hip_adduction_r	hip_rotation_r	knee_angle_r	knee_angle_r_beta	ankle_angle_r	subtalar_angle_r	mtp_angle_r	hip_flexion_l	hip_adduction_l	hip_rotation_l	knee_angle_l	knee_angle_l_beta	ankle_angle_l	subtalar_angle_l	mtp_angle_l	lumbar_extension	lumbar_bending	lumbar_rotation	arm_flex_r	arm_add_r	arm_rot_r	elbow_flex_r	pro_sup_r	arm_flex_l	arm_add_l	arm_rot_l	elbow_flex_l	pro_sup_l
      4.40000000	    -27.20735823	      1.44122259	     -2.22081430	      0.98842075	      0.79359523	     -0.10451287	     62.63349653	    -17.33939887	     -4.78695073	     65.09149238	      1.13606086	     22.76284822	    -15.57927398	     -7.49999987	     64.99388562	    -13.99569958	     -4.10404504	     65.25678975	      1.13894584	     19.86240900	    -11.34517663	     -7.49999987	    -19.66107866	     -7.70527420	      2.65616022	     25.02350035	    -16.74013820	      1.22276712	     46.29852482	     82.62480720	     26.75574254	    -20.12458036	      2.79608746	     47.81465504	     82.95362050
      4.41666670	    -26.95024430	      1.23182678	     -2.29195073	      0.97824093	      0.80835906	     -0.09935524	     61.00462228	    -16.87663622	     -6.08319524	     61.93631679	      1.08099265	     20.83344303	    -16.24680951	     -7.49999987	     63.45188235	    -14.20810588	     -4.68060420	     61.97846911	      1.08172835	     17.56569631	    -12.26394221	     -7.49999987	    -19.35459172	     -7.53613662	      2.53472556	     24.32997013	    -16.20564691	      1.05739620	     45.05549456	     82.49173450	     25.85559590	    -20.52201011	      2.41067754	     46.35693931	     82.66061974
      4.43333330	    -26.41470722	      1.04656160	     -2.41418679	      0.97851264	      0.81963256	     -0.09907131	     58.98379050	    -16.54315430	     -7.52934498	     58.71966837	      1.02485155	     19.03867591	    -16.53713044	     -7.49999987	     61.39805478	    -14.27175511	     -5.21721084	     58.50697083	      1.02113928	     15.01672388	    -13.39233456	     -7.49999987	    -19.17599399	     -7.35178405	      2.44110142	     23.63218445	    -15.81972508	      1.03970492	     43.61682375	     82.53358976	     24.90405218	    -20.60121481	      1.71385568	     44.45896449	     82.43131057
      4.45000000	    -26.15828684	      0.90837481	     -2.41985472	      0.96939436	      0.82627868	     -0.09965836	     57.73576493	    -16.36835190	     -8.76736020	     56.16079594	      0.98019080	     17.60629635	    -16.49147964	     -7.49999987	     60.16372819	    -14.27928542	     -5.66381135	     55.76552075	      0.97329195	     12.83137674	    -14.33133418	     -7.49999987	    -18.73827759	     -7.11955746	      2.10606043	     23.05203809	    -15.67449568	      1.18663307	     42.06948707	     82.64408378	     23.28447054	    -20.47139047	      1.09717230	     41.53375486	     82.18057975
      4.46666670	    -25.34057818	      0.78641004	     -2.36314158	      0.97658302	      0.84191634	     -0.10108420	     55.09210338	    -16.36392870	    -10.46886336	     52.69484297	      0.91969851	     15.97118606	    -16.31303627	     -7.49999987	     57.44497055	    -13.93121635	     -6.11658783	     52.12736684	      0.90979418	     10.42915331	    -15.61250655	     -7.49999987	    -18.82908120	     -6.83391005	      1.76502549	     22.29888802	    -15.54338284	      1.42387498	     39.55627784	     82.35352872	     21.56490332	    -20.15435973	      0.45066876	     38.34621375	     81.49505767
      4.48333330	    -23.29417209	      0.55441358	     -2.24289523	      0.99030502	      0.85259150	     -0.10764212	     50.34728642	    -16.46169308	    -12.34198401	     48.66611669	      0.84938397	     14.64860934	    -15.65776271	     -7.49999987	     52.85565845	    -13.33799836	     -6.47261952	     48.20492255	      0.84133461	      8.15718017	    -17.06046279	     -7.49999987	    -19.84732298	     -6.23708006	      1.62160657	     20.82010115	    -15.61091073	      1.70056479	     36.68570550	     82.40141382	     19.79682661	    -19.24269132	     -0.29136314	     35.45000230	     81.13092552
      4.50000000	    -21.00945706	      0.31517342	     -1.90974794	      1.00060540	      0.86343792	     -0.10680299	     44.76677289	    -16.30069534	    -14.07464952	     44.03870327	      0.76862037	     13.49944052	    -15.06495670	     -7.49999987	     47.59243540	    -12.65064698	     -6.82221625	     43.84206370	      0.76518836	      6.44339567	    -17.80733762	     -7.49999987	    -20.80439877	     -5.77381983	      1.20899295	     19.12122116	    -15.35788278	      1.91817313	     33.52234963	     82.37521817	     18.06494667	    -18.52004463	     -1.22956942	     32.00236847	     80.74217419
      4.51666670	    -19.66262275	      0.16792271	     -1.66787836	      0.99504612	      0.87684136	     -0.10541836	     40.76045663	    -15.96271588	    -15.43099649	     39.99318612	      0.69801278	     12.30285576	    -14.19811480	     -7.49999987	     43.73932929	    -12.24677495	     -7.34467060	     39.74201557	      0.69362902	      5.26261760	    -17.43936423	     -7.49999987	    -21.60562135	     -5.53025663	      0.78591025	     17.74781283	    -15.24561992	      2.15183234	     31.99488456	     82.32897197	     16.34687743	    -18.01159771	     -2.07071502	     29.80685292	     80.36779415
      4.53333330	    -18.72775050	     -0.00355250	     -1.42322427	      0.98823198	      0.88548860	     -0.10227022	     38.12420968	    -15.53515305	    -16.39191039	     37.17161033	      0.64876699	     11.40149749	    -13.69253783	     -7.49999987	     41.25828155	    -12.04338727	     -7.65721735	     36.74937769	      0.64139764	      4.41564731	    -17.09990591	     -7.49999987	    -22.53634707	     -5.31673352	      0.42032565	     16.62186175	    -15.23445244	      2.30214967	     31.16577436	     82.21668786	     14.74752664	    -17.66384669	     -3.01503266	     28.18733102	     79.97502802
      4.55000000	    -18.25922174	     -0.30393428	     -1.18801475	      0.98377154	      0.89535149	     -0.10012727	     36.51798013	    -14.95295996	    -17.28601370	     34.95264109	      0.61003867	     10.68345857	    -13.31610033	     -7.49999987	     39.87975666	    -12.10632719	     -7.77194665	     34.59831246	      0.60385447	      3.56528078	    -16.88730297	     -7.49999987	    -23.41102034	     -4.89557927	      0.15076539	     15.67370659	    -15.37400967	      2.31626002	     30.52661463	     82.05197595	     13.53596646	    -17.49856826	     -3.64156017	     27.52613570	     79.70449732
      4.56666670	    -17.51593547	     -0.65542470	     -0.96709918	      0.98402153	      0.90348981	     -0.09932138	     34.55851317	    -14.28323630	    -18.32780068	     32.57488565	      0.56853901	     10.03596000	    -12.93885272	     -7.49999987	     38.17942439	    -12.23176158	     -7.95398704	     32.39101235	      0.56532981	      2.37673158	    -16.93848116	     -7.49999987	    -24.60527117	     -4.46744857	      0.03623738	     14.91220038	    -15.53624905	      2.27937570	     29.93292403	     81.86073360	     12.60854964	    -17.29244485	     -4.20372119	     26.99240723	     79.52401002
      4.58333330	    -17.54714236	     -0.75624048	     -0.81893107	      0.97954240	      0.89905348	     -0.09772747	     34.55029966	    -14.00871053	    -18.40113447	     32.04298694	      0.55925562	     10.08814876	    -12.89801408	     -7.49999987	     38.18574049	    -12.22571656	     -7.84647964	     31.74569661	      0.55406693	      2.08672702	    -16.86830193	     -7.49999987	    -24.71371631	     -4.37046291	     -0.15849807	     13.92785366	    -15.67004536	      2.36010725	     29.76967768	     81.91599765	     11.24698085	    -17.15868109	     -4.25306259	     26.36947952	     79.60924760
      4.60000000	    -17.18052075	     -0.84324343	     -0.58722273	      0.97928491	      0.89887913	     -0.09719375	     34.00236970	    -13.83776118	    -18.53069294	     31.53248893	      0.55034575	     10.21185419	    -12.94020524	     -7.49999987	     37.61996458	    -12.07303176	     -7.58485150	     31.00247493	      0.54109526	      2.02133851	    -17.10707078	     -7.49999987	    -24.94513384	     -4.22008461	     -0.47847032	     12.86616034	    -15.68376084	      2.72336347	     29.45195591	     81.55832123	     10.05484034	    -17.00649614	     -4.42602778	     25.29857355	     79.38462080
